<svg width="18" height="10" viewBox="0 0 18 10" fill="none" xmlns="http://www.w3.org/2000/svg">
<path fill-rule="evenodd" clip-rule="evenodd" d="M1.6412 6.5055C0.906149 7.33144 0.521019 8.41081 0.567197 9.5155C0.565593 9.55523 0.571904 9.59489 0.585761 9.63216C0.599619 9.66943 0.620747 9.70357 0.647917 9.7326C0.675087 9.76163 0.707758 9.78497 0.744029 9.80126C0.7803 9.81756 0.819448 9.82648 0.859197 9.8275C0.899013 9.83026 0.938969 9.82476 0.976564 9.81136C1.01416 9.79796 1.04858 9.77695 1.07768 9.74963C1.10678 9.72232 1.12993 9.68929 1.14568 9.65262C1.16142 9.61594 1.16943 9.57642 1.1692 9.5365C1.25357 8.64843 1.67386 7.82609 2.3442 7.2375C2.599 7.02438 2.88285 6.84862 3.1872 6.7155C3.6412 6.5085 4.1342 6.4055 4.6332 6.4155C5.00875 6.42159 5.37941 6.50185 5.72384 6.65167C6.06827 6.80149 6.37969 7.01791 6.6402 7.2885C7.2302 7.8185 7.6402 8.5205 7.8152 9.2955C7.81969 9.35213 7.8379 9.40681 7.86825 9.45482C7.89861 9.50283 7.94019 9.54273 7.98941 9.57108C8.03863 9.59944 8.09401 9.61538 8.15077 9.61755C8.20753 9.61971 8.26396 9.60803 8.3152 9.5835C8.37622 9.55417 8.4271 9.50727 8.46131 9.44884C8.49551 9.3904 8.51149 9.32308 8.5072 9.2555C8.41375 8.26523 8.00183 7.33192 7.3332 6.5955C6.73456 5.90006 5.90988 5.43797 5.0042 5.2905C5.59732 5.14871 6.12241 4.80446 6.48896 4.31707C6.8555 3.82967 7.04055 3.22969 7.0122 2.6205C7.03448 2.30913 6.98393 1.99684 6.86455 1.7084C6.74518 1.41995 6.56026 1.16328 6.32445 0.958714C6.08864 0.754152 5.80842 0.607328 5.50601 0.529876C5.2036 0.452425 4.88731 0.446477 4.5822 0.512503C4.50133 0.531371 4.43012 0.579101 4.38194 0.646737C4.33376 0.714373 4.31191 0.797266 4.3205 0.879863C4.32909 0.962461 4.36753 1.03908 4.4286 1.09536C4.48967 1.15163 4.56917 1.18368 4.6522 1.1855C4.84064 1.16823 5.03055 1.19384 5.2077 1.26039C5.38484 1.32695 5.54463 1.43274 5.67508 1.56982C5.80553 1.70691 5.90326 1.87175 5.96095 2.05197C6.01864 2.2322 6.03479 2.42315 6.0082 2.6105C6.02009 2.9871 5.89403 3.35508 5.65373 3.64529C5.41342 3.93549 5.07541 4.12796 4.7032 4.1865C4.42697 4.22087 4.14654 4.18768 3.88596 4.0898C3.62539 3.99191 3.39247 3.83224 3.2072 3.6245C3.00041 3.42461 2.85056 3.17326 2.77306 2.89628C2.69555 2.61931 2.69319 2.3267 2.7662 2.0485C2.85318 1.82382 3.00275 1.62878 3.1972 1.4865C3.41464 1.31543 3.66374 1.18901 3.9302 1.1145C3.96918 1.10623 4.00612 1.09027 4.03886 1.06756C4.07161 1.04485 4.0995 1.01585 4.12091 0.982242C4.14232 0.948635 4.15682 0.911099 4.16357 0.871826C4.17031 0.832553 4.16917 0.792329 4.1602 0.753504C4.14113 0.676314 4.09314 0.6094 4.02614 0.566594C3.95914 0.523787 3.87825 0.508361 3.8002 0.523504C3.37267 0.599673 2.9677 0.770886 2.6152 1.0245C2.35259 1.21182 2.13919 1.45987 1.9932 1.7475C1.81332 2.17163 1.75463 2.63734 1.82366 3.09282C1.89269 3.54831 2.08673 3.97572 2.3842 4.3275C2.7952 4.8235 3.3672 5.1605 4.0002 5.2805C3.65533 5.31373 3.31731 5.39799 2.9972 5.5305C2.4802 5.7535 2.0172 6.0855 1.6412 6.5055ZM10.8562 6.5055C10.1211 7.33144 9.73602 8.41081 9.7822 9.5155C9.7822 9.59533 9.81391 9.6719 9.87036 9.72834C9.92681 9.78479 10.0034 9.8165 10.0832 9.8165C10.163 9.8165 10.2396 9.78479 10.296 9.72834C10.3525 9.6719 10.3842 9.59533 10.3842 9.5155C10.4691 8.63008 10.8852 7.80937 11.5492 7.2175C11.8099 7.0055 12.0942 6.8315 12.4022 6.6955C12.8552 6.4885 13.3492 6.3855 13.8472 6.3955C14.2229 6.40133 14.5937 6.48136 14.9383 6.63102C15.2829 6.78067 15.5945 6.99698 15.8552 7.2675C16.4452 7.7995 16.8552 8.5005 17.0292 9.2755C17.0349 9.36599 17.0761 9.45055 17.144 9.5107C17.2118 9.57086 17.3007 9.6017 17.3912 9.5965C17.4364 9.59533 17.4809 9.58488 17.5219 9.56578C17.563 9.54669 17.5996 9.51937 17.6296 9.48551C17.6596 9.45166 17.6824 9.412 17.6964 9.36899C17.7104 9.32598 17.7155 9.28054 17.7112 9.2355C17.622 8.24606 17.2134 7.31246 16.5472 6.5755C15.9549 5.89003 15.1424 5.43216 14.2492 5.2805C14.8301 5.12508 15.3401 4.77531 15.6944 4.28947C16.0487 3.80363 16.2258 3.21107 16.1962 2.6105C16.2185 2.29913 16.1679 1.98684 16.0486 1.6984C15.9292 1.40995 15.7443 1.15328 15.5084 0.948715C15.2726 0.744153 14.9924 0.597328 14.69 0.519877C14.3876 0.442426 14.0713 0.436478 13.7662 0.502504C13.7174 0.500775 13.6688 0.509567 13.6238 0.528282C13.5787 0.546997 13.5382 0.575196 13.505 0.610963C13.4718 0.646729 13.4467 0.689226 13.4313 0.735563C13.416 0.7819 13.4109 0.830993 13.4162 0.879504C13.4214 0.92796 13.4368 0.974752 13.4616 1.01674C13.4863 1.05874 13.5197 1.09496 13.5596 1.12299C13.5994 1.15102 13.6448 1.1702 13.6927 1.17926C13.7406 1.18832 13.7899 1.18704 13.8372 1.1755C14.0287 1.15201 14.223 1.17296 14.405 1.23673C14.5871 1.30051 14.7519 1.40539 14.8869 1.54323C15.0218 1.68107 15.1232 1.84816 15.1831 2.03152C15.2429 2.21489 15.2598 2.40959 15.2322 2.6005C15.2441 2.97695 15.1182 3.34481 14.8781 3.635C14.638 3.92518 14.3002 4.11774 13.9282 4.1765C13.6519 4.21262 13.3709 4.18025 13.11 4.08225C12.8492 3.98425 12.6164 3.82362 12.4322 3.6145C12.2322 3.41269 12.0895 3.16124 12.0188 2.88602C11.9482 2.61079 11.9521 2.32171 12.0302 2.0485C12.1179 1.82397 12.2678 1.62904 12.4622 1.4865C12.6792 1.3155 12.9282 1.1895 13.1952 1.1145C13.2737 1.09726 13.3421 1.04955 13.3855 0.981846C13.4288 0.914145 13.4434 0.832008 13.4262 0.753504C13.409 0.674999 13.3612 0.606559 13.2935 0.563238C13.2258 0.519917 13.1437 0.505264 13.0652 0.522504C12.6376 0.598973 12.2326 0.77053 11.8802 1.0245C11.6212 1.21302 11.4114 1.46097 11.2682 1.7475C11.0883 2.17163 11.0296 2.63734 11.0987 3.09282C11.1677 3.54831 11.3617 3.97572 11.6592 4.3275C12.0622 4.8175 12.6222 5.1545 13.2452 5.2805C12.9 5.31364 12.5616 5.39789 12.2412 5.5305C11.7132 5.7505 11.2412 6.0825 10.8562 6.5055Z" fill="#045BAD"/>
</svg>
